# xmcd
#
# Track frame offsets: 
#        150
#        26457
#        45517
#        64735
#        85493
#        102715
#        117907
#        134939
#        152406
#        170645
#        187115
#        203061
#        223030
#        241337
#        258735
#        282028
#        298568
#        316019
#        332150
#
# Disc length: 4769 seconds
#
# Revision: 0
# Processed by: cddbd v1.5.1PL0 Copyright (c) Steve Scherf et al.
# Submitted via: ExactAudioCopy v0.95a5
#
DISCID=24129f13
DTITLE=Rick and Renner - Acústico - 10 Anos de Sucesso
DYEAR=2002
DGENRE=Sertaneja
TTITLE0=Só Pensando Em Você
TTITLE1=Seguir Em Frente
TTITLE2=Sem Direção
TTITLE3=O Amor E Eu
TTITLE4=Fim De Semana
TTITLE5=Preciso Te Encontrar
TTITLE6=Bandida
TTITLE7=Paixão De Peão
TTITLE8=Baby
TTITLE9=Ela É Demais
TTITLE10=Muleca
TTITLE11=Filha
TTITLE12=Cara De Pau
TTITLE13=Nos Bares Da Cidade
TTITLE14=Mil Vezes Cantarei (Una Y Mil Veces)
TTITLE15=Vou Ganhar Você
TTITLE16=Aqueles Olhos
TTITLE17=Eu Sem Você
TTITLE18=Instante Mágico
EXTD=
EXTT0=
EXTT1=
EXTT2=
EXTT3=
EXTT4=
EXTT5=
EXTT6=
EXTT7=
EXTT8=
EXTT9=
EXTT10=
EXTT11=
EXTT12=
EXTT13=
EXTT14=
EXTT15=
EXTT16=
EXTT17=
EXTT18=
PLAYORDER=
